Simulation
nRows=44
nColumns=15
endheader
time  TH_x TH_y TH_z SC_y  SC_z  SC_x  AC_y  AC_z  AC_x  GH_y  GH_z  GH_yy  EL_x  PS_y
5.362  0.000000  0.000000  0.000000  -35.748568826008835  9.21323192745679  -0.7518906223300678  51.546436266354185  18.449987229989517  7.651433214514036  9.483352080260225  78.69525584288242  -12.917879024883321  13.54251998121329  120.000000
5.4156200000000005  0.000000  0.000000  0.000000  -35.60950366798444  9.104938778400161  0.17578625094358213  51.80820261369481  17.927155456872356  7.089143800519223  9.265588246159446  78.76699258014058  -12.895896204856474  13.600909098949389  120.000000
5.46924  0.000000  0.000000  0.000000  -35.19568655519888  8.858173144558283  0.7552282427662488  52.16246364000852  17.329139080773366  6.532890259512458  8.966615022677825  78.65111696605169  -12.36659732547818  13.47092784889488  120.000000
5.52286  0.000000  0.000000  0.000000  -34.50538025978943  8.482880881299456  0.9513766902724542  52.60653656471606  16.63964773195152  6.013145887203525  8.57531374198502  78.29444046910183  -11.402014417247987  13.210257657212145  120.000000
5.57648  0.000000  0.000000  0.000000  -33.54652992195316  7.9886918943315335  0.7441329617991287  53.13034972330985  15.854889857492507  5.5735058498265335  8.063286216154255  77.62923523250709  -10.102742589982514  12.901482124729919  120.000000
5.6301000000000005  0.000000  0.000000  0.000000  -32.33722382297548  7.388405713002438  0.1290759611241924  53.70730980951073  14.989638773069293  5.268907811327783  7.395535927456814  76.58301666364713  -8.564032472002744  12.622825570161671  120.000000
5.68372  0.000000  0.000000  0.000000  -30.905881239252466  6.7003424999932975  -0.8803968548577518  54.29453227275301  14.083684229151041  5.156226537600538  6.541757132196464  75.09458784270296  -6.857799735026415  12.422597892967161  120.000000
5.73734  0.000000  0.000000  0.000000  -29.29062951866866  5.950332602258269  -2.2500125014909202  54.84446035835721  13.202799587748004  5.277804396552973  5.487105165040081  73.12860508794316  -5.025464226867492  12.308320077924026  120.000000
5.79096  0.000000  0.000000  0.000000  -27.53874950524552  5.16990286133776  -3.922069951930243  55.317746562586926  12.423811822017388  5.650228509727031  4.2450332278877925  70.67915571429796  -3.07861675578438  12.260214910257144  120.000000
5.8445800000000006  0.000000  0.000000  0.000000  -25.710542318389734  4.392747789141525  -5.81626161141984  55.69336228407353  11.813405274034432  6.25643530237447  2.864710488671069  67.76479054058929  -1.0145691971079025  12.249057150192273  120.000000
5.8982  0.000000  0.000000  0.000000  -23.883463089332786  3.6514067266360395  -7.835508644217605  55.9671633358528  11.41536947978014  7.04650035212728  1.4297921052602451  64.42111905776747  1.1694568657154403  12.248020510235511  120.000000
5.95182  0.000000  0.000000  0.000000  -22.148998414316463  2.9771360716972888  -9.877148404877158  56.14464109838481  11.248219746686674  7.947465449820428  0.05281148390661106  60.69535285604536  3.4681762365378073  12.238770878203722  120.000000
6.00544  0.000000  0.000000  0.000000  -20.60466870334635  2.3955156845441405  -11.841698461609047  56.2258355902005  11.3113943512007  8.88095558774686  -1.1426151280492838  56.64390240719247  5.867332220078077  12.210166459087198  120.000000
6.059060000000001  0.000000  0.000000  0.000000  -19.34714218645937  1.9335336634214788  -13.642035479342598  56.198867550099294  11.5895550810493  9.766287697991277  -2.0493968235745985  52.332611022618366  8.348822022777908  12.155786741380398  120.000000
6.11268  0.000000  0.000000  0.000000  -18.446079021226865  1.6189720516175476  -15.206973363794598  56.05657586714268  12.056467110476683  10.522829153618906  -2.587399583573222  47.83509878822774  10.888473832607218  12.078089208772148  120.000000
6.1663  0.000000  0.000000  0.000000  -17.921232565106664  1.4560423479346418  -16.47177086177814  55.80550691522572  12.680733698707963  11.102004816902786  -2.6995714998250278  43.22873385801509  13.449361599475749  11.99683815971285  120.000000
6.21992  0.000000  0.000000  0.000000  -17.749305188455963  1.4314067526925105  -17.393087535293805  55.4746985661675  13.428841803536546  11.487374735427215  -2.3592480384932633  38.59853617018174  15.983008120278262  11.944681792732267  120.000000
6.273540000000001  0.000000  0.000000  0.000000  -17.879569916838435  1.5190894124650016  -17.957489823794518  55.11121277513523  14.264840109340653  11.682726552695518  -1.5766098062416722  34.03804626164455  18.43868840221975  11.959078531405275  120.000000
6.32716  0.000000  0.000000  0.000000  -18.24129528179986  1.6831310685486693  -18.173187753599912  54.76506846261013  15.149637607983186  11.712755338885604  -0.4007929610591447  29.640476521645084  20.777179545013734  12.075956896985621  120.000000
6.38078  0.000000  0.000000  0.000000  -18.74941420483306  1.8896773686771156  -18.06692333668446  54.48605949218387  16.042994727393573  11.606658889037897  1.0825143884176902  25.487813720151433  22.981125239941914  12.325771245634265  120.000000
6.4344  0.000000  0.000000  0.000000  -19.30823444458984  2.1105934487426232  -17.66969721403955  54.31672658773577  16.9038311983365  11.390897209949076  2.7577328782889583  21.63745719584291  25.057630346168235  12.731093927626807  120.000000
6.488020000000001  0.000000  0.000000  0.000000  -19.830706836372503  2.3251041995010104  -17.012769458235937  54.27731744641277  17.700010071570855  11.099575289331499  4.497599993254364  18.117747076369128  27.020629237940945  13.300158651099308  120.000000
6.54164  0.000000  0.000000  0.000000  -20.259865628577906  2.524625122406391  -16.129343840760615  54.35312990006453  18.41806571467531  10.777922495550047  6.181268449257298  14.932565015451672  28.87137126170008  14.013244215847559  120.000000
6.59526  0.000000  0.000000  0.000000  -20.582641852768383  2.7140266766208985  -15.05162322768949  54.51239761959984  19.05710765694749  10.455099676413273  7.771641010917606  12.07288662474153  30.52735979253796  14.81039378976388  120.000000
6.64888  0.000000  0.000000  0.000000  -20.82213534949271  2.909545916757107  -13.815204963160406  54.72185343186364  19.605986655452067  10.13736954353398  9.402282340822342  9.513576244504646  31.754719437654604  15.605271121926716  120.000000
6.702500000000001  0.000000  0.000000  0.000000  -21.018021060697073  3.1261900435345655  -12.464351602565314  54.938994679100475  20.04477670983113  9.828883091374506  11.373142790968586  7.216428086670658  32.175987696154806  16.30988329223974  120.000000
6.75612  0.000000  0.000000  0.000000  -21.216827336872058  3.369385227722027  -11.04289318470214  55.12387249061649  20.364386712439583  9.529870658293769  14.2523671972555  5.154428469052131  31.174680214645644  16.850995001058422  120.000000
6.80974  0.000000  0.000000  0.000000  -21.448018621367794  3.644277984643588  -9.583681207945716  55.25273119248703  20.566805588643945  9.235968494047809  19.251976267368228  3.314849194782428  27.555800392032275  17.19670078390033  120.000000
6.86336  0.000000  0.000000  0.000000  -21.71260411146954  3.9489545436969147  -8.112154639904373  55.32217042801717  20.658821005333614  8.952194613735422  30.877843068406026  1.7031373238434742  16.89712867644027  17.366743407289793  120.000000
6.916980000000001  0.000000  0.000000  0.000000  -21.982857863223543  4.2725762034703605  -6.649464058838373  55.355658355869416  20.647513090760636  8.689832187610763  92.28906528803665  0.6041469413810925  -43.83795547172036  17.418068871496406  120.000000
6.9706  0.000000  0.000000  0.000000  -22.21831117691237  4.6020507210817705  -5.2113352636257435  55.38364571562304  20.537904795032922  8.455590277693778  167.80618910141112  1.3800267317870294  -118.84262875635518  17.417956050234668  120.000000
7.02422  0.000000  0.000000  0.000000  -22.39232711459218  4.924113569975474  -3.8105483806169023  55.424550534605196  20.334280129712624  8.247766185918831  -178.99119421409827  2.5330433254863887  -131.59690008139518  17.415820459935873  120.000000
7.07784  0.000000  0.000000  0.000000  -22.50095693723779  5.229947075525588  -2.4602787771404615  55.484688266692515  20.04411035952558  8.058247264454803  -173.90338508037507  3.6126503695407273  -136.24227474171445  17.434830476013403  120.000000
7.131460000000001  0.000000  0.000000  0.000000  -22.560385959608567  5.514621700617627  -1.1738703253655678  55.55980840384215  19.679725777307603  7.876312447301755  -171.12447015006373  4.592111782476425  -138.56366194259996  17.47560517001598  120.000000
7.18508  0.000000  0.000000  0.000000  -22.59516910322127  5.775364644485046  0.03547137748868633  55.643445056011366  19.256830896186617  7.690884912673975  -169.38148690298453  5.462538790126092  -139.8354556015019  17.528350142336883  120.000000
7.2387  0.000000  0.000000  0.000000  -22.626685182987096  6.008871321603716  1.153828873336464  55.732753749654385  18.79104730325676  7.49379896603207  -168.21196052219844  6.213789040726776  -140.5304449755528  17.58265179636999  120.000000
7.29232  0.000000  0.000000  0.000000  -22.667490667698257  6.21010856388397  2.165733119765369  55.83075473783565  18.2958451101313  7.280085250136066  -167.39521349114554  6.8325801727724915  -140.88062828767107  17.632011494780535  120.000000
7.345940000000001  0.000000  0.000000  0.000000  -22.7207874764603  6.372798411370056  3.053758945427803  55.94498713033421  17.781133134325522  7.047715446547544  -166.8084704679298  7.302801435115111  -141.01748458232035  17.67429091924703  120.000000
7.39956  0.000000  0.000000  0.000000  -22.78325064445413  6.489791449678484  3.798796044579332  56.084243997701726  17.252790826086418  6.796781904191434  -166.37502061685933  7.6064231013265715  -141.02330425212278  17.710659040611112  120.000000
7.45318  0.000000  0.000000  0.000000  -22.847360739466303  6.554071094759094  4.380640027457673  56.2563853293753  16.712966099224243  6.528671822565696  -166.03952555583646  7.724650506810468  -140.955729178032  17.74474367612289  120.000000
7.5068  0.000000  0.000000  0.000000  -22.90381135957471  6.558728118726976  4.778838394437944  56.46549114813589  16.16084295174417  6.246364972361868  -165.7439107778365  7.639204982952353  -140.87213957599695  17.78200988175909  120.000000
7.560420000000001  0.000000  0.000000  0.000000  -22.9422108954321  6.497527277866853  4.97345652416827  56.71047559517874  15.594086117734424  5.954702385556071  -165.40680696776275  7.333857306050433  -140.85085925715157  17.828569071193503  120.000000
7.61404  0.000000  0.000000  0.000000  -22.953385886281747  6.364949441190056  4.946226109460144  56.98307219096277  15.01055130661037  5.660723337338524  -164.89709354126745  6.796257224755161  -141.0202343407579  17.888681877072123  120.000000
7.66766  0.000000  0.000000  0.000000  -22.930331897121714  6.156840210565626  4.681758452217817  57.26621575038134  14.410153205181588  5.374100445299389  -163.97605006059578  6.0202444440030645  -141.61938129928959  17.961170288816003  120.000000
